<?xml version="1.0" standalone="no"?>
<!DOCTYPE svg PUBLIC "-//W3C//DTD SVG 20010904//EN"
 "http://www.w3.org/TR/2001/REC-SVG-20010904/DTD/svg10.dtd">
<svg version="1.0" xmlns="http://www.w3.org/2000/svg"
 width="588.000000pt" height="588.000000pt" viewBox="0 0 588.000000 588.000000"
 preserveAspectRatio="xMidYMid meet">
<metadata>
Created by potrace 1.11, written by Peter Selinger 2001-2013
</metadata>
<g transform="translate(0.000000,588.000000) scale(0.100000,-0.100000)"
fill="#000000" stroke="none">
<path d="M2830 5527 c-27 -12 -44 -21 -930 -533 -322 -185 -702 -404 -845
-486 -205 -117 -271 -161 -311 -203 -91 -94 -84 13 -84 -1349 l0 -1201 29 -60
c17 -37 46 -76 73 -100 25 -22 324 -200 664 -397 341 -196 777 -447 969 -559
446 -257 449 -259 545 -259 62 0 85 5 130 28 30 15 494 281 1030 590 664 384
989 577 1018 605 24 23 55 67 70 97 l27 55 0 1205 0 1205 -28 57 c-15 31 -45
74 -66 95 -25 24 -386 238 -1008 597 -532 308 -996 575 -1031 593 -57 30 -71
33 -145 32 -45 0 -93 -5 -107 -12z"/>
</g>
</svg>
